<mxfile host="app.diagrams.net" modified="2024-06-20T14:48:33.364Z" agent="Mozilla/5.0 (Windows NT 10.0; Win64; x64) AppleWebKit/537.36 (KHTML, like Gecko) Chrome/126.0.0.0 Safari/537.36 Edg/126.0.0.0" etag="uiAIzgRxECBsARA6boO-" version="24.5.5" type="onedrive">
  <diagram name="ページ1" id="vhlW-vgH_A1DdsHGw5qN">
    <mxGraphModel grid="1" page="1" gridSize="10" guides="1" tooltips="1" connect="1" arrows="1" fold="1" pageScale="1" pageWidth="827" pageHeight="1169" math="0" shadow="0">
      <root>
        <mxCell id="0" />
        <mxCell id="1" parent="0" />
        <mxCell id="gLFx5uSj1Unh8X_UrJlp-11" style="edgeStyle=orthogonalEdgeStyle;rounded=0;orthogonalLoop=1;jettySize=auto;html=1;exitX=0.5;exitY=1;exitDx=0;exitDy=0;entryX=0.5;entryY=0;entryDx=0;entryDy=0;" edge="1" parent="1" source="gLFx5uSj1Unh8X_UrJlp-1" target="gLFx5uSj1Unh8X_UrJlp-2">
          <mxGeometry relative="1" as="geometry" />
        </mxCell>
        <mxCell id="gLFx5uSj1Unh8X_UrJlp-1" value="開始" style="rounded=0;whiteSpace=wrap;html=1;" vertex="1" parent="1">
          <mxGeometry x="120" width="120" height="60" as="geometry" />
        </mxCell>
        <mxCell id="gLFx5uSj1Unh8X_UrJlp-12" style="edgeStyle=orthogonalEdgeStyle;rounded=0;orthogonalLoop=1;jettySize=auto;html=1;exitX=0.5;exitY=1;exitDx=0;exitDy=0;entryX=0.5;entryY=0;entryDx=0;entryDy=0;" edge="1" parent="1" source="gLFx5uSj1Unh8X_UrJlp-2" target="gLFx5uSj1Unh8X_UrJlp-3">
          <mxGeometry relative="1" as="geometry" />
        </mxCell>
        <mxCell id="gLFx5uSj1Unh8X_UrJlp-2" value="from0 = [1, 2, -1]" style="rounded=1;whiteSpace=wrap;html=1;" vertex="1" parent="1">
          <mxGeometry x="120" y="80" width="120" height="60" as="geometry" />
        </mxCell>
        <mxCell id="gLFx5uSj1Unh8X_UrJlp-13" style="edgeStyle=orthogonalEdgeStyle;rounded=0;orthogonalLoop=1;jettySize=auto;html=1;exitX=0.5;exitY=1;exitDx=0;exitDy=0;" edge="1" parent="1" source="gLFx5uSj1Unh8X_UrJlp-3" target="gLFx5uSj1Unh8X_UrJlp-4">
          <mxGeometry relative="1" as="geometry" />
        </mxCell>
        <mxCell id="gLFx5uSj1Unh8X_UrJlp-3" value="from1 = [0, 2, 3, 4, -1]" style="rounded=1;whiteSpace=wrap;html=1;" vertex="1" parent="1">
          <mxGeometry x="120" y="160" width="120" height="60" as="geometry" />
        </mxCell>
        <mxCell id="gLFx5uSj1Unh8X_UrJlp-14" style="edgeStyle=orthogonalEdgeStyle;rounded=0;orthogonalLoop=1;jettySize=auto;html=1;exitX=0.5;exitY=1;exitDx=0;exitDy=0;entryX=0.5;entryY=0;entryDx=0;entryDy=0;" edge="1" parent="1" source="gLFx5uSj1Unh8X_UrJlp-4" target="gLFx5uSj1Unh8X_UrJlp-5">
          <mxGeometry relative="1" as="geometry" />
        </mxCell>
        <mxCell id="gLFx5uSj1Unh8X_UrJlp-4" value="from2 = [0, 1, 3, -1]&amp;nbsp;" style="rounded=1;whiteSpace=wrap;html=1;" vertex="1" parent="1">
          <mxGeometry x="120" y="240" width="120" height="60" as="geometry" />
        </mxCell>
        <mxCell id="gLFx5uSj1Unh8X_UrJlp-15" style="edgeStyle=orthogonalEdgeStyle;rounded=0;orthogonalLoop=1;jettySize=auto;html=1;exitX=0.5;exitY=1;exitDx=0;exitDy=0;entryX=0.5;entryY=0;entryDx=0;entryDy=0;" edge="1" parent="1" source="gLFx5uSj1Unh8X_UrJlp-5" target="gLFx5uSj1Unh8X_UrJlp-6">
          <mxGeometry relative="1" as="geometry" />
        </mxCell>
        <mxCell id="gLFx5uSj1Unh8X_UrJlp-5" value="from3 = [1, 2, 4, -1]&amp;nbsp;&amp;nbsp;" style="rounded=1;whiteSpace=wrap;html=1;" vertex="1" parent="1">
          <mxGeometry x="120" y="320" width="120" height="60" as="geometry" />
        </mxCell>
        <mxCell id="gLFx5uSj1Unh8X_UrJlp-16" style="edgeStyle=orthogonalEdgeStyle;rounded=0;orthogonalLoop=1;jettySize=auto;html=1;exitX=0.5;exitY=1;exitDx=0;exitDy=0;entryX=0.5;entryY=0;entryDx=0;entryDy=0;" edge="1" parent="1" source="gLFx5uSj1Unh8X_UrJlp-6" target="gLFx5uSj1Unh8X_UrJlp-7">
          <mxGeometry relative="1" as="geometry" />
        </mxCell>
        <mxCell id="gLFx5uSj1Unh8X_UrJlp-6" value="from4 = [1, 3, -1]" style="rounded=1;whiteSpace=wrap;html=1;" vertex="1" parent="1">
          <mxGeometry x="120" y="400" width="120" height="60" as="geometry" />
        </mxCell>
        <mxCell id="gLFx5uSj1Unh8X_UrJlp-17" style="edgeStyle=orthogonalEdgeStyle;rounded=0;orthogonalLoop=1;jettySize=auto;html=1;exitX=0.5;exitY=1;exitDx=0;exitDy=0;entryX=0.5;entryY=0;entryDx=0;entryDy=0;" edge="1" parent="1" source="gLFx5uSj1Unh8X_UrJlp-7" target="gLFx5uSj1Unh8X_UrJlp-8">
          <mxGeometry relative="1" as="geometry" />
        </mxCell>
        <mxCell id="gLFx5uSj1Unh8X_UrJlp-7" value="roads = [from0, from1, from2, from3, from4]" style="rounded=1;whiteSpace=wrap;html=1;" vertex="1" parent="1">
          <mxGeometry x="120" y="480" width="120" height="60" as="geometry" />
        </mxCell>
        <mxCell id="gLFx5uSj1Unh8X_UrJlp-18" style="edgeStyle=orthogonalEdgeStyle;rounded=0;orthogonalLoop=1;jettySize=auto;html=1;exitX=0.5;exitY=1;exitDx=0;exitDy=0;" edge="1" parent="1" source="gLFx5uSj1Unh8X_UrJlp-8" target="gLFx5uSj1Unh8X_UrJlp-9">
          <mxGeometry relative="1" as="geometry" />
        </mxCell>
        <mxCell id="gLFx5uSj1Unh8X_UrJlp-8" value="result = bfs(0, 4)　　" style="rounded=1;whiteSpace=wrap;html=1;" vertex="1" parent="1">
          <mxGeometry x="120" y="560" width="120" height="60" as="geometry" />
        </mxCell>
        <mxCell id="gLFx5uSj1Unh8X_UrJlp-19" style="edgeStyle=orthogonalEdgeStyle;rounded=0;orthogonalLoop=1;jettySize=auto;html=1;exitX=0.5;exitY=1;exitDx=0;exitDy=0;" edge="1" parent="1" source="gLFx5uSj1Unh8X_UrJlp-9" target="gLFx5uSj1Unh8X_UrJlp-10">
          <mxGeometry relative="1" as="geometry" />
        </mxCell>
        <mxCell id="gLFx5uSj1Unh8X_UrJlp-9" value="print(result)" style="rounded=1;whiteSpace=wrap;html=1;" vertex="1" parent="1">
          <mxGeometry x="120" y="640" width="120" height="60" as="geometry" />
        </mxCell>
        <mxCell id="gLFx5uSj1Unh8X_UrJlp-10" value="終了" style="rounded=0;whiteSpace=wrap;html=1;" vertex="1" parent="1">
          <mxGeometry x="120" y="720" width="120" height="60" as="geometry" />
        </mxCell>
      </root>
    </mxGraphModel>
  </diagram>
</mxfile>
